<?xml version="1.0" encoding="utf-8"?>
<svg version="1.1" xmlns="http://www.w3.org/2000/svg" xmlns:xlink="http://www.w3.org/1999/xlink" x="0px" y="0px"
	 viewBox="0 0 701.6 1524.9" style="enable-background:new 0 0 701.6 1524.9;" xml:space="preserve">
<style type="text/css">
	.botw{fill:#B99F65;}
</style>
<path class="botw" d="M353,205.5l-0.9,0.7c-2.2,2-5.2,4.7-7.5,7.1c-1.9,2.1-3.5,4.3-4.9,6.8c1.6,1.9,3.3,3.6,5.1,5.3
	c1.4,1.3,7.1,6.3,8.3,7.3c0.7-0.6,3.2-2.8,5.3-4.6c0-0.9,0.1-1.8,0.4-2.6c1.8-1.1,3.5-2.4,5.1-3.8c0,0,0.1,0.5,0.1,1.2
	c0.8-0.8,1.7-1.8,2.4-2.7c-1.4-2.4-3.1-4.7-4.9-6.8c-2.3-2.4-5.3-5.1-7.5-7.1C353.5,206,353.3,205.8,353,205.5L353,205.5z
	 M360.6,103.4c-0.4-0.9-0.9-1.8-1.5-2.6l1.4-1.3c-2.2-2.2-4.6-4.5-6.6-6.2l-0.9-0.7l-0.9,0.7c-2.2,1.9-5.2,4.7-7.5,7.1
	c-1.9,2.1-3.5,4.3-4.9,6.8c1.6,1.9,3.3,3.6,5.1,5.3c1.4,1.3,7.1,6.3,8.3,7.3c1.2-1,6.9-6,8.3-7.3c1.8-1.7,3.5-3.4,5.1-5.3
	c-0.8-1.4-1.7-2.7-2.6-3.9C362.3,103.2,360.6,103.4,360.6,103.4z M353,167.9l-0.9,0.7c-1.6,1.4-3.3,2.9-4.8,4.4
	c-0.1,1.8,0.1,3.5,0.5,5.2c-1.4,0.8-2.7,1.8-3.9,2.8l-0.2-1.7c-1.5,0.8-2.8,2-3.8,3.4c1.6,1.9,3.5,3.7,4.8,5s7.1,6.3,8.3,7.3
	c1.2-1,6.9-6,8.3-7.3c1.8-1.7,3.5-3.4,5.1-5.3c-1.4-2.4-3.1-4.7-4.9-6.7c-2.3-2.4-5.3-5.1-7.5-7.1L353,167.9z M353,130.2l-0.9,0.7
	c-2.2,2-5.2,4.7-7.5,7.1c-1.9,2.1-3.5,4.3-4.9,6.8c1.6,1.9,3.3,3.6,5.1,5.3c1.4,1.4,7.1,6.3,8.3,7.3c1.2-1,6.9-6,8.3-7.3
	c1.8-1.7,3.5-3.4,5.1-5.3c-1.4-2.4-3.1-4.7-4.9-6.8c-2.3-2.4-5.3-5.1-7.5-7.1C353.5,130.7,353.3,130.5,353,130.2L353,130.2z
	 M621.3,1073.5c0.1,0.2,0.1,0.3,0.2,0.5c0.1,0.4,0.1,0.7,0.1,1.1c0,0.3-0.4,0.6-0.5,0.9c-0.1,0.5-0.2,1-0.2,1.5
	c0.7-0.1,1.4-0.1,2.1,0c0.6,0.3,1.1,0.9,1.3,1.5c0.1,0.4,0.1,0.9,0.1,1.3c0,0.3-0.1,0.7-0.1,1c0.2,0,0.3,0.1,0.4,0.2
	c0.2,0.6,0.2,1.2,0,1.7c-0.4,0.6-0.9,1.2-1.4,1.7c-0.3,0.3-1.7,1.6-1.7,1.6l1.2,1l1.7,1.3c0.4,0,0.8,0.1,1.1,0.2
	c0.6,0.5,1.1,1,1.5,1.5c0.3,0.3,0.9,1,0.9,1s0.7-1.6,0.8-1.9c0.1-0.4,0-0.9-0.2-1.2c-0.2-0.3-0.4-2.2-0.8-2.8
	c-0.4-0.6-0.4-1.4,0.1-2c0.4-0.4,0.6-0.8,0.7-1.4c0-0.5,0.3-0.9,0.6-1.2c0.4-0.3,0.7-0.6,1.1-0.9c0.6-0.4,1.3-0.7,2.1-0.8
	c0.8-0.2,1.6-0.3,2.5-0.3c0.5,0,0.9-0.2,1.3-0.5c0.5-0.3,0.9-0.7,1.4-1.1c0.2-0.1,0.5-0.2,0.8-0.2c0,0,0.1,1,0.1,1.3
	c0,0.4,0.2,0.8,0.4,1.2c0.2,0.3,0.4,0.5,0.7,0.7c0,0.6-0.1,1.4-0.1,1.4s0.8-0.1,0.9-0.1c0.7,0.4,1.3,0.9,1.8,1.5
	c0.2,0.3,0.3,1.1,0.4,1.4s0.8,0.6,0.8,0.6s-0.6,0.6-0.9,0.7c-0.3,0.4-0.6,0.9-0.7,1.4c-0.2,0.3-0.6,0.5-1,0.5
	c-0.2,0-1.2-0.6-1.5-0.7c-0.7-0.1-1.3-0.1-2-0.1c-0.2,0.7-0.7,1.2-1.4,1.4c-0.6,0.3-1.2,0.6-1.7,1c-0.5,0.6-1,1.2-1.4,1.9
	c-0.6,0.7-1.1,1.3-1.8,1.9c-0.5,0.5-1.5,2.2-2.2,3s-1.5,1.3-1.7,1.5s-0.1,0.8-0.1,0.8h-2.8c-0.6,0.1-1.1,0.3-1.5,0.6
	c-0.9,0.6-1.8,1-2.9,1.2c-0.5,0.1-1.1,0-1.5-0.3c-0.5-0.4-1.1-0.8-1.7-1.1c-0.8-0.3-1.5-0.5-2.3-0.6c0.3-0.6,0.5-1.2,0.6-1.9
	c0-0.7,0-1.3-0.3-1.9c-0.3-0.7-1.2-1.2-1.8-1.6c-0.6-0.7-0.9-1.6-0.9-2.5c0.1-1.1,0.3-2.1,0.6-3.2c0.2-0.5,0.6-1,1.2-1.2
	c0.4-0.2,0.7-0.5,1-0.9c0.2-0.3,0.3-0.6,0.4-0.9h-4.6c-0.3,0-0.9-0.1-1.5-0.1l-64.6,56.6h-45.9l0.1-0.1c-5.4-0.3-10.7-1.8-15.4-4.5
	c-5.8-3.5-6.6-8.9-5.6-14.3c2-9.2,4.5-18.2,7.7-27c3.8-10.1,8.3-19.9,13.4-29.4c1.7-3,3.8-6.6,6.1-10.1c0.6,0.3,1.2,0.5,1.8,0.7
	c1.8,0.5,2.4-0.6,2.4-0.6c0.4,0.8,0.9,1.5,1.7,2c1.5,0.8,3.1,1.3,4.8,1.5c1.3,0.2,2.7-0.5,3.3-1.7c1,1.2,2.5,1.7,4,1.2
	c1.3-0.2,3.9-4,4.9-7.2c1-3.2,1.6-6.5,1.6-9.9c0-2.2-0.7-4.4-2-6.1c1.6-0.1,3.2,0.7,4.1,2.1c1.6,1.7,3.5,3.1,5.7,4
	c4.1,1.7,8.2,3.3,12.5,4.5c2.4,0.5,7.6,0.9,10.7-0.9c-1.2-2.8-3.3-5.1-6-6.5c1.3,0.3,5-0.4,6.9-2.3c-1.1-1.4-2.8-2.4-4.5-2.7
	c-2.9-0.7-6.9,1.5-9.8,2.2c-2.8,0.5-5.7,0.4-8.4-0.3c-1.6-0.6-3.6-3-4.6-3.7c-2.5-1.6-5.2-2.6-8.1-3c1-1.2,2.4-2.1,4-2.5
	c1.6-0.4,4.3,0.3,6.8,0.8s15.9,2.6,19.8,3.1c4.1,0.6,14,1.2,17.1,0.9c3.6-0.3,7.1-1.4,10.2-3.2c-1.6,0.2-4.4,0-8.8-0.2
	c-5.6-0.3-11.2-1-16.8-1.9c-2.2-0.5-8.6-2.3-12.9-2.6c3-1.6,6.2-2.6,9.6-3c3.1-0.4,8.4,0.3,12,1c3.7,0.8,7.3,1.3,11.1,1.6
	c2.9,0.2,6,0.2,9.2-2.3c-4.2,1-7.2,0.6-10.5,0.3c3-0.2,6-0.9,8.9-1.9c2.6-1.1,4.7-3,6.2-5.4c-3.9,1.4-7.9,2.4-11.9,3.2
	c-3.5,0.7-13.8,1.1-17.4,1.1c-4.3-0.1-8.6-0.5-12.8-1.1c-2.5-0.4-5.4-1.1-8.8-0.2c2.1-2.9,8.8-4.5,10.7-4.7s6.3,0.1,9-1.1
	c3.5-1.7,5.2-4.5,5.9-8.4c-1.3,2-5.4,4.2-7.4,4.4c2-1.8,3.7-4,4.7-6.5c0.6-1.7,0.8-3.5,0.4-5.3c-2.2,3.4-8.6,9.3-13.2,11.2
	c2.1-1.7,3.5-4.1,4.1-6.8c-2.3,1.7-4.7,3.2-7.2,4.5c-2.5,1-5,1.7-7.7,2.1c4.2-6.8,11.7-19,14.8-23.5c3.8-5.6,15-22,20.9-26.8
	c6.8-5.7,19.8-9.8,28.7-9.3c0,0.2,2.7,11.2,3.4,12.4s1.7,1.3,2.8,2s2,1.8,4.3,3.7s9,4.8,12.2,5.5s7.9,0.7,9.5,0.9s3.4,2.8,4.2,5.1
	s-2.8,8.1-2.8,8.1s4-4.8,4.7-7.4s-1-5-2.1-6s-6.6-1.3-8.4-1.6c-1.4-0.4-2.7-1-3.8-1.8c1.2-0.1,2.5-0.3,3.7-0.5
	c4-0.7,7.9-1.7,11.7-2.8c1.7-0.7,4.4-2.7,4.9-4.6c0.5-1.3,0.7-2.8,0.5-4.2c-0.2-1.1,0.3-1.8,0.5-3.6c0.5-2.8,0.1-5.6-0.9-8.2
	c-1.3-2.7-2.9-5.4-4.8-7.8c0.2,0.1,0.4,0.2,0.5,0.2c1.6,0.5,6.6,1.1,8.6,0.3c2-0.9,3.7-2.4,4.7-4.4c0.9-1.8,0.2-6.2,0.2-6.2
	c-0.2,1.8-0.9,3.5-2.2,4.8c-1.1,1-3.9,1.7-6.7,1.3c-3.2-0.8-6.4-1.7-9.5-2.8c0.4-0.5,0.8-1.1,1-1.8c0.1-1.4-0.1-2.8-0.6-4.1
	c-0.6-1.4-4.2-4-4.2-4c1.1,1.8,2,3.6,2.9,5.5c0.3,1.2,0.1,2.5-0.5,3.6c-0.4,0.4-10.1-2.6-12.3-3s-5.7,0.4-9.5,2.3s-9.1,9-10.3,11.9
	c0,0-0.4,1.3-0.8,2.4c-5.4-0.3-10.9,0.5-16.1,2.2c-7,2.4-15.9,5.6-21.6,12.8c-4.8,6-14.6,19.2-17,22.7s-8.8,12.3-8.8,12.3
	s4.1-11,6.3-18.8s3.3-22.8,2-31.1c-1.2-7.1-4.3-24.1-5-31.7c1.9,1.5,9.6,7.6,12,9.1c2.7,1.7,11.1,2.8,16.4,2.3s10.2-1.5,10.2-1.5
	c-1-3.8-0.2-12.2-1.8-18.2s-9.3-13.9-9.3-13.9s11.3,3,16,4.6s13.4,8.2,13.4,8.2c-1.8,1.9-4.3,2.9-6.8,2.9c-3-0.4-5.9-1.2-8.6-2.6
	c2.9,2.7,10.3,5.1,13.1,5.2c2.3,0,4.2-1.6,4.6-3.8c0.7-2.4,0.8-5,0.4-7.5c-0.6-2.5-10.7-11.1-17.6-15.4c-4.8-2.8-10-4.7-15.4-5.7
	c0,0,14.3-6,20.8-10.1s11.5-11.9,13.7-15.1s7.3-17.7,7.3-17.7c-2.6,1-23.7,5.7-28.7,7.1s-18,6.2-25.9,10.9c-3.9,2.3-7.1,6.3-9.2,9.8
	c0.4-0.9,0.8-1.8,1-2.4c1.9-5.1,4.9-14.7,5.8-17.6c0.2,0,0.3,0,0.5-0.1c1.4-0.7,2.4-2.1,2.4-3.7c0.1-1.2-0.8-2.3-2-2.4
	c-0.1,0-0.2,0-0.3,0c-1.9,0-2.6,2.8-2.4,3.8c0.1,0.7,0.4,1.4,0.9,2c-1.2,3.8-4.7,13.2-8.2,21.4c1-5.4,2.4-13.2,2.8-15.2
	c0.5-3.3,0.9-15.2-1.6-20.8s-16.5-25.7-16.5-25.7c-0.9,4.4-6.7,19-9,24.2c-2.4,5.5-4.1,11.4-5,17.3c-1.1,6.6-1.8,13.3,1.8,19.6
	c2.2,3.9,4.5,7.8,6,10.4c-6.2-7.7-12-15.7-17.4-24c0.4-0.7,0.5-1.5,0.4-2.3c-0.1-1-1.5-3.8-3.5-3.2c-1.2,0.3-2,1.5-1.8,2.7
	c0,0.1,0,0.2,0.1,0.3c0.4,1.6,1.7,2.9,3.4,3.2c0.2,0,0.3,0,0.5,0c1.7,2.8,7.2,11.8,10.5,16.6c1,1.4,2.8,3.6,5,6.1l0.4,0.4
	c-2-1.5-4.4-3.2-6.1-4.5c-3.6-2.6-9.8-5-15.5-6.3c-5.8-1.3-21-1.9-27-0.8c-6,1-24,3-24,3s4.1,5.3,6.8,8.3s12.5,11.4,20.3,14.9
	c5,2.2,10.3,3.5,15.7,4c-2.8,1.6-5.5,3.5-7.9,5.7c-3.3,3.1-6.2,11.3-7,14.6s2.2,8.5,3.9,10c1,0.9,2.2,1.4,3.5,1.6l-5.1,8.9
	c3.5,0.5,7.1,0.5,10.6-0.1c4.9-1,14.8-3.6,19.7-5.9c3.2-1.6,6.1-3.6,8.8-5.9c0,0-0.3,5.3-0.7,7.9s1.7,11.4,3.9,16.6s4.5,7.7,6.2,8.4
	s7.8-1.3,9-2.7s0.8-5,0.8-7.4s-3.4-7.1-3.4-7.1s2.1,5.3,1.9,9.3c-0.2,2.3-1.5,4.4-3.5,5.6c0,0-3.2-6.3-3.6-9.6s-0.6-12.4,1.5-17.5
	c1.9-4.1,4.1-8.1,6.6-11.8c0.7,4.6,2,13.2,3,18.3c1.5,7.3,3.6,19.1,3.1,29.2c-0.5,9.1-3.3,23.5-6.7,31.2c-2.5,6.1-7.4,19-12.3,27.2
	c1.3-3.5,2.3-7,3-10.6c0.2-2.2-0.5-4.5-1.9-6.2c-1.5-2.7-2.6-5.5-3.1-8.6c-2.9,2.3-4.2,7.2-4.2,7.2c0.1-2.6-0.2-5.2-0.9-7.7
	c-2.5,2.9-5.5,11-5.9,14.9s-0.4,6.6,0.5,9.8c0.6,2.1-0.9,3.1-1.2,4.6s1.2,2,2.3,2.7c1,0.5,1.9,1.2,2.6,2c0.4,0.7-0.3,1.2-1.4,0.5
	c-0.9-0.5-3.4-2.1-5-2.7s-4.6-0.2-6.6-0.1c-3,0-6-0.6-8.8-1.7c-2.4-1-7.4-4.7-9.6-6.7s-10.2-10-11.7-11.5c-3.3-3.4-6.7-6.7-10.3-9.8
	c1,2.6,2.1,5.2,3.5,7.7c1.9,3.6,4.7,8.7,7.3,12.5c0,0-4.8-5.2-6.4-6.9c-2.2-2.2-4.7-4-7.5-5.4c2.1,3,8.3,10.2,10.7,12.8
	s5.1,5.4,6.8,8.3c-2.1-1.4-4.1-2.9-6-4.5c-1.7-1.4-7.7-5.7-9.2-6.8s-9.6-6.4-13.2-7.9c1.5,1.7,4.6,5.2,6.3,7.5
	c-0.5-0.5-11.1-9.8-14.3-11.8c2.2,3.4,9.7,10.7,13,14s6.8,7.8,10.7,9.8c-3.2-0.5-9.7,1-12.3,2.2c5.5,3.2,13.6,2.9,16.8,2.3
	c-1.8,1.7-9,2.9-12.6,1.7c3.4,2.9,7.3,5.1,11.5,6.8c4.7,1.7,14.3,2.2,19.8,2.1s11.3-2,13.1-3.6c1,0.6,2.2,1.2,3.3,1.7
	c0.9,0.4,1.2,0.7,1.2,1.3s-2.5,4.4-3.2,8.6c-0.2,1.4-0.4,2.7-0.5,4.1c-7.1,10.4-13.3,21.4-18.5,32.9c-6,13.8-10.8,28.2-14.2,42.8
	c-1.7,7.8-4.1,13.4-13.4,16.5c-2.6,0.9-5.1,1.6-7.4,2.3h-44.2l-1.8-5.9l-2.5-3.5l7.2-12.2V1086c0,0-4.2-8.6-4.7-10
	c-0.2-1.2-1.8-13.5-1.8-13.5s-6.8-10.7-7.7-12.1l8.8-2.2l5.4-8.8c0,0-0.1-69.8-0.2-152l76.2-114.5c0-0.4,0-0.7,0-1.1
	c0.1-0.3,0.8-1.7,0.9-2c0-0.5,0-1.1-0.1-1.6l-0.6,0.2c0-0.7,0-1.3,0-2c-0.1-0.3-0.3-0.7-0.6-0.9c0,0,0.9-1.1,1.6-1.8
	c0.4-0.5,0.9-1,1.4-1.3c0.6-0.3,1.8-0.9,2.1-1.1c0.5-0.4,1-0.8,1.4-1.2c0.1,0.3,0.2,0.7,0.2,1c0,0.2,0.2,0.3,0.5-0.1
	c0.4-0.7,0.9-1.3,1.4-1.8c0.6-0.1,1.1-0.5,1.4-1c0.5-0.8,0.8-1.6,1.2-2.4c0.1-0.3,0.4-1.4,0.5-1.8c0.1-0.3,0.2-1,0.5-1.1
	c0.2-0.1,1.1-0.2,1.8-0.2l3-4.6c0-0.4,0-0.7-0.1-1.1c-0.1-0.3-0.2-0.6-0.2-0.9c0-0.3,0.1-0.6,0.3-0.8c0.5-0.5,1-1.1,1.4-1.7
	c0.2-0.3,0.3-1.2,0.6-1.4c0.7-0.4,1.5-0.8,2.2-1.1c0.2-0.1,0.3-0.1,0.5-0.2l6-9.1c0.1-0.5,0.1-1.1,0.1-1.5c-0.1-0.9-0.1-1.7,0-2.6
	c0.1-0.3,0.7-1.6,1.2-2.6c0.4-0.6,0.6-1.3,0.8-2c0-0.4,0.5-1.1,0.8-1.2c0.4-0.1,1.6,0.2,2,0c0.4-0.2,0.8-0.9,1.1-1s1-0.3,1.6-0.6
	l66.2-99.4c-0.3-0.4-0.6-0.8-0.8-1.3c-0.3-0.6-0.5-1.3-0.6-2c-0.1-0.4-0.1-1-0.1-1c-1.1,0-2.2,0-3.2-0.1c-0.4-0.2-0.7-0.7-1.2-1.2
	c-0.5-0.4-1-0.6-1.5-0.9c0.5-0.8,0.9-1.6,1.3-2.5c0.3-0.8,0.5-1.6,0.6-2.4c0-0.4,0.1-2.7,0.1-2.7s1.7,0.3,2.1,0.3s2,0.1,2,0.1
	c0,1,0.1,2,0.5,2.9c0.4-0.8,0.9-1.5,1.5-2.1c0.5-0.3,2.8-1.8,2.8-1.8c-0.3-1-0.5-2-0.7-3c-0.5,0.1-1,0.3-1.4,0.6
	c-0.2,0.2-0.4,0.4-0.6,0.6l-2.1-0.6c-0.7-0.1-1.3-0.5-1.8-1c-1-0.9-2.1-1.6-3.3-2.2c0,0,1.6-0.3,2.5-0.5c1.1-0.4,2.2-0.9,3.2-1.5
	c0.6-0.4,1.2-0.7,1.8-0.9c0.3,0,1.3-0.1,1.3-0.1c0-0.4,0-0.9,0.1-1.3c0.1-0.6,0.9-0.9,1.4-1.7c0.5-0.8,1-1.6,1.4-2.4
	c0.3-0.8,0.6-1.6,1-2.3c0.4-0.4,0.8-0.8,1.3-1.1l-0.1-1.3c0,0,1.2-0.3,1.5-0.1c0.3,0.2,1.2,0.8,1.4,0.7c0.7-0.2,1.4-0.4,2.1-0.8
	c0.3-0.3,0.5-0.6,0.6-1c0.3-0.1,0.6-0.1,0.8,0.1c0.4,0.3,1.4-0.5,1.5-0.8c0-0.5,0-1.1,0.2-1.6c0.3-0.4,2-3,2-3
	c-0.4-0.8-0.7-1.5-0.9-2.3c-0.3-0.9-0.6-1.9-0.7-2.9c-0.1-0.7-0.1-3.4-0.1-3.4c0.6-0.1,1.3-0.3,1.8-0.6c1.4-1.2,2.7-2.5,3.9-3.9
	c0.1-0.3,0.3-0.6,0.5-0.9c0.4,0.3,0.7,0.7,1,1.1h1.5c0.4-0.7,0.7-1.4,0.8-2.2c0.4,0.1,0.7,0.3,1,0.5c0.4,0.4,0.9,0.6,1.4,0.7
	c0.4,0,0.8-0.3,1.1,0.2s0.2,1,0.6,1.4s0.8,0.7,1,1.3c0.1,0.4,0.1,0.8,0.2,1.2c0,0,1.5-0.6,1.9-0.9c0.4-0.3,0.9-0.6,1.4-0.7
	l60.1-90.3v-0.2c0-0.9,0.1-1.8,0.3-2.7c0.2-0.8,0.4-2.8,0.4-2.8c-1.1-0.6-2.1-1.3-3.1-2c-0.9-0.9-1.4-2.3-2-3s-2.3-1.2-3.1-1.6
	c-1.2-0.9-2.4-1.9-3.4-3.1c-0.4-0.8-0.6-1.6-0.6-2.5c-0.9-0.8-1.8-1.6-2.6-2.5c-0.3-0.6,0.1-3,0.2-3.6c0.2-0.6,0.6-1.1,1-1.6h-83.2
	c0.2,0.1,0.3,0.3,0.5,0.5c0.2,0.3,1,0,1.6,0.3s1,1.2,1,1.2h-2.1c-0.1,0.3-0.2,0.5-0.2,0.8c-0.4,0.7-1,1.3-1.6,1.8
	c-0.7,0.6-1.5,0.9-2.4,0.9c-0.7-0.1-1.3-0.4-1.9-0.7c-0.7-0.2-1.3-0.4-2-0.5c0.6-0.5,1.2-1,1.8-1.5c0.1-0.4,0.2-0.8,0.2-1.3
	c-0.8-0.1-1.6-0.3-2.3-0.7c-0.3-0.2-0.7-0.4-0.9-0.6h-3.6c-0.3,0.1-0.6,0.2-0.8,0.3c-0.3,0.2-2,0.6-3,0.9c-0.8,0.3-1.6,0.8-2.3,1.4
	c-0.3-0.2-0.6-0.4-0.8-0.6c-0.4-0.2-0.8-0.2-1.2-0.3c0.2-0.3,0.5-0.6,0.6-0.9c0.1-0.3,0.1-0.5,0.1-0.8H393.6v-13.5h8.3v-13.4h-4.7
	c0-8.6,0-23.8,0.1-31.7l0.8-0.2c4.3-1.3,16.7-8.8,19.4-10.7c4.2-3,8.1-6.3,11.9-9.9c2.6,9.4,3.8,19.1,3.7,28.9l-0.1,4.7l4.6,1.1
	c5.8,1.5,85.4,21.1,98.2,24.1l10.1,2.4l-3.1-9.9c-0.6-1.9-1.6-4.9-2.9-8.8l-0.7-1.9l-6.8-4.2l-5.2-8.8c0.6-2.5,1.2-4.7,1.4-5.7
	l1.9-2.7l-1.5-3.1c-9.7-20.6-20.7-37.4-32.5-49.6c-2.4-2.7-5.1-5.4-8-8.2l-1.2-1.1l-6.5-1.5c-0.8-0.5-2.1-1.3-3-1.8
	c-0.4-0.8-0.9-1.8-1.2-2.4c0-0.4-0.2-3.9-0.2-3.9l-2.1-1.7c-5-4-10.3-7.7-15.8-11.1c0.6-5.9,1-13.4,1.3-19.2l0.8-14.4
	c0-0.7-0.5-1.3-1.2-1.3c-0.4,0-0.8,0.1-1,0.4l-8.8,10.2c-4.6,5.1-9.5,9.9-14.6,14.4l-1.1,1l-3,8c-0.9-0.2-1.8-0.4-2.7-0.4h-0.8
	c-1.1,0-2.2,0.3-3.2,0.6l-0.9,0.3l-0.8,0.5c-4.8,3.5-9.9,6.7-15.2,9.4c-3.2,1.5-6.4,2.9-9.7,4.1c0.9-1.3,1.9-2.5,3-3.6
	c1.9-2.2,4.5-3.8,7.4-4.3c1.5-0.3,3.1-0.4,4.6-0.4V290l-5.7-0.2c-0.6,0-1.5-0.1-2.4-0.2l-6.2,5.1c-0.7-0.7-4.5-3.1-4.5-3.1l-0.1-3.9
	c-0.8-0.2-1.6-0.4-2.3-0.6c-1.9-0.6-3.7-1.4-5.4-2.5V279l-1.6-1.8c-0.6,0.4-3.6,1.5-3.6,1.5c-0.2-1.1-0.6-2.1-1-3.1h-3.3v-5
	c1.5-2.5,2.5-5.2,2.8-8.1c0.1-1.2,0.1-3.2,0-6.5v-0.8c0.3-2.7-0.1-5.4-1-8c-0.5-1.3-1.1-2.5-1.8-3.8V233c1.5-2.5,2.5-5.2,2.8-8.1
	c0.1-1.4,0.1-3.8,0-6.5v-0.8c0.3-2.6,0-5.2-0.9-7.7l-0.1-0.3c-0.5-1.3-1.1-2.5-1.8-3.8v-10.4c1.5-2.4,2.5-5.2,2.8-8.1
	c0.1-1.2,0.1-3.3,0-6.5v-0.9c0.3-2.7-0.1-5.4-1-8c-0.5-1.3-1.1-2.5-1.7-3.7v-10.5c1.2-2,2.1-4.3,2.5-6.6c-1.1-1.8-2.4-3.4-3.7-5
	c1.5-2.3,2.8-4.7,4-7.2c-0.1-1.6-0.4-3.1-1-4.6c-0.5-1.3-1.1-2.5-1.8-3.8v-10.4c1.5-2.5,2.5-5.2,2.8-8.1c0.1-1.2,0.1-3.3,0-6.5v-0.9
	c0.3-2.6-0.1-5.2-0.9-7.7l-0.1-0.3c-0.5-1.3-1.1-2.5-1.8-3.8v-5.4h9.3v-8.8h2.4l0.2-4.2c0.3-6.4,4-11.9,8.9-14l3.2-1.4l-0.7-3.4
	c-2.2-10.9-11.5-17-15.4-19.2L369.8,0h-5.3l-2.7,2.2l-3.4,0.1c-0.3,0-4.8,0.9-4.8,0.9L350.3,0h-14.2L330,16.1l1.1,1.8
	c0.1,0.1,0.2,0.3,0.2,0.4c0,0.5,0,1.4,0.1,2.1l-3.9,2.1l-5.8,13.9c-3.8,2.1-13.3,8.2-15.4,19.2l-0.7,3.4l3.2,1.4
	c4.8,2.1,8.6,7.7,8.9,14l0.2,4.2h2.4v8.8h9.3v5.4c-0.7,1.2-1.3,2.5-1.8,3.8l-0.1,0.3c-0.8,2.5-1.1,5.1-0.9,7.7v0.9
	c0,2.8-0.1,5.2,0,6.7c0.3,2.8,1.2,5.6,2.8,8v10.4c-0.7,1.3-1.3,2.6-1.9,4c-0.8,2.5-1.1,5.1-0.9,7.7v0.9c0,2.8-0.1,5.2,0,6.7
	c0.3,2.8,1.2,5.6,2.8,8v10.4c-0.7,1.3-1.3,2.6-1.9,4c-0.9,2.5-1.2,5.1-0.9,7.8v7.5c0.3,2.8,1.2,5.6,2.8,8v10.4
	c-0.7,1.2-1.3,2.5-1.8,3.8l-0.1,0.3c-0.8,2.5-1.1,5.1-0.9,7.7v1.9c1.6,1.9,3.3,3.6,5.1,5.2c-1.1,1.9-2.3,3.8-3.7,5.6
	c0.4,1,0.9,1.9,1.4,2.8v10.4c-0.7,1.3-1.3,2.6-1.9,4c-0.8,2.5-1.1,5.1-0.9,7.7v0.8c0,2.7-0.1,5.2,0,6.7c0.3,2.8,1.2,5.6,2.8,8v5h-9
	v8.8c-1.2,0.8-2.4,1.4-3.7,1.9c-0.8,2.1-1.7,4.1-2.9,6c-2.6-0.5-6.5-0.9-6.5-0.9l-2.4-2.4c-1.8,0.3-3.5,0.5-5.3,0.6l-5.7,0.2v24.9
	l4.6,0.9c2.7,0.7,5.1,2.1,7.1,3.9c1.1,1.1,2.2,2.2,3.2,3.4c-2.3-0.8-4.6-1.8-6.8-2.9l-1.5-1.1l-8.3-0.1l-3.4-6.4l-1.6-0.9
	c-5.6-3-26.4-22-30.1-26.4l-9-10.9c-0.4-0.5-1.2-0.6-1.7-0.2c-0.3,0.3-0.5,0.6-0.4,1l0.8,15.3c0.3,5.7,0.7,13.2,1.3,19
	c-10.2,6-26.6,19.2-34.9,28.5c-8.2,8.8-18.8,21.7-24.4,31.9l-0.5,1l-0.1,1.1c-0.3,2.5-0.5,4-0.9,6l-0.2,1.2c0,0,0.8,3.3,1.1,4.5
	c-2.3,1.2-5.2,2.8-5.2,2.8l-5,5l-0.4,0.9c-2.1,4-12,29-13.6,33.7l-3.6,10.2l10.6-2.5c5-1.2,20-4.9,37.2-9.2c3.2-2,7.9-5,10.3-6.3
	l7.6-2.4c3.2,0.4,6.4,1,9.6,1.8l32.4-8.1l5.7-1.4l-0.1-4.7c-0.1-9.9,1.1-19.7,3.8-29.2c5.5,5.4,11.8,10.2,14.3,11.4l1,0.5l1.1,0.1
	c0.8,0,1.7,0,2.5,0c0.3,0.6,0.5,1.2,0.8,1.8l0.6,1.2l1,0.8c2.2,1.8,8.1,4.5,9.5,5.1l1.1,0.4c0,7.9,0,23.1,0.1,31.6h-4.7v13.4h8.3
	v13.4H198c-0.1,0.2-0.2,0.3-0.4,0.4c-0.6,0.1-1.3,0.1-1.9,0c-0.6,0-1.4,1.2-1.4,1.2l-0.8-0.3c-0.7-0.1-1.4-0.1-2,0.2
	c-1.2,0.8-2.4,1.6-3.5,2.5c-0.8,0.7-1.5,1.4-2.2,2.2c-1.4-0.1-2.8-0.1-4.2-0.1c0,0-0.6,0.5-0.9,0.8c-1.3,0.9-2.6,1.7-3.9,2.5
	c-0.8,0.3-1.6,0.5-2.4,0.7c-1.1-0.6-3.2-0.3-3.8-0.3s-4,0.5-4.5,0.5c-2-0.3-4-0.8-6-1.4c-0.8-0.3-1.6-0.8-2.2-1.4
	c-0.3-0.3-1.8-0.3-1.8-0.3c0.8-0.4,1.4-1,1.8-1.8c0.3-0.8,0.5-1.6,0.7-2.5c0.2-0.6,0.6-1.1,1.2-1.4c0.3-0.2,0.7-0.3,1-0.2
	c0.2-0.1,0.4-0.4,0.6-0.6c0.1-0.3,0.2-0.6,0.2-0.8h-24.7c0,0.1,0,0.3-0.1,0.4c-0.4,0.5-0.8,1-1.2,1.4c-0.8,0.1-1.5,0.1-2.3,0
	c-0.1,0.4-0.2,0.8-0.3,1.2c-0.4,0.8-0.9,1.6-1.4,2.3c0,0-0.4-0.5-0.7-0.5s-0.7,0.2-1.5,0.7c-0.7,0.4-1.4,0.8-2.2,1.2
	c0,0-0.1-0.6-0.2-0.7s-1.2-0.6-1.6,0.2c-0.9,1.2-1.9,2.4-3,3.5c0.1,0.5,0.2,1.1,0.2,1.6c-0.1,1-0.2,2-0.5,3
	c-0.1,1.6-0.2,3.1-0.1,4.7c-0.9,0.6-1.7,1.3-2.5,2c-0.6,0.5-2.6,2.7-2.6,2.7h-2.3c-1.5,0.1-2.9,0.6-4.1,1.4c-1.2,0.7-2.2,1.8-3,3
	c-0.1,0.2-0.3,0.6-1.5,0.7c1.4-1.7,2.4-3.7,2.9-5.8c1.2,0,3.4-1.5,4.3-2.3c1.3-1.1,2.5-2.4,3.7-3.7c0.3-0.4,0.4-0.9,0.3-1.5
	c-0.1-0.4-1.2-3.3-1.4-3.7c-0.2-0.9-0.3-1.8-0.4-2.7c0.1-0.8,0.4-1.5,0.6-2.2c0,0-1.2,0.7-1.5,0.6c-0.7-0.8-1.2-1.7-1.5-2.6
	c-0.1-0.6-0.2-2-0.2-2c-0.7-0.4-1.4-1-1.8-1.8c-0.2-0.3-0.5-0.7-0.7-1H84.4l-25.8,68.6c0.3,0.5,0.6,1.2,0.7,1.5
	c0.1,0.6,0.4,1.2,0.9,1.7c0.8,0.6,1.4,1.3,2,2.1c0.3,0.7,0.3,1.5,0.1,2.3c-0.2,0.5-1.9,3-1.9,3.5c0,0.6-0.1,1.2-0.3,1.7
	c-0.6,1-1.3,1.9-2,2.8c-0.5,0.3-0.9,0.5-1.4,0.7c0.1,0.6,0.1,1.1,0,1.7c-0.2,0.6-0.5,1.2-0.8,1.8c-0.5-0.3-1.1-0.2-1.4,0.2
	c-0.3,0.5-0.2,1.1,0.2,1.4c-0.1,0.3-1.1,0.9-1.1,0.9c0,0.5-0.1,1-0.3,1.4c-0.3,0.4-2.3,1.9-3,2.6c-0.6,0.5-1.2,0.9-1.9,1.2l-21.9,58
	c0.1,0.3,0.3,0.5,0.5,0.7c0.5,0.2,1.6,0.7,1.6,0.7c-0.1,0.7,0,1.4,0.2,2.1c0.3,0.4,0.7,1.4,1.3,1.8c0.8,0.3,1.5,0.7,2.1,1.2
	c0.3,0.7,0.6,1.4,1,2c0.3,0.2,1.2,0.1,1.2-0.2c0.1-0.5,0.2-1,0.3-1.5c0.2,0.6,0.5,1.2,1,1.6c0.8,0.8,1.5,1,1.8,1.5s0.8,1.5,1,1.7
	c-0.3,0.6-0.7,1.1-1.2,1.6c-0.5,0.6-1.4,1.5-1.6,1.6c-0.7,0.1-1.3,0.1-2,0.1c-0.3,0-1.5,0-1.6,0.2c-0.1,0.2-0.3,0.4-0.5,0.5
	c-0.1-0.3-0.3-0.5-0.5-0.7c-0.6-0.3-1.2-0.2-1.7,0.2c-0.3,0.4-1.6,2.1-1.6,2.1s-4.7,0-5.2,0c-0.5-0.1-1.3-0.9-1.9-2L0,678
	l131.5-99.6l2.5-4.1c0,0-1.1-0.2-1.3,0.1s-0.9,0.5-1.1,0.3s-0.5-0.9-0.5-0.9l-3.4-0.1l-0.2-1.5c0.6-0.1,1.2-0.3,1.8-0.6
	c0.5-0.4,2-1.5,2-2c0.1-0.3,0.1-0.7,0.2-1c0,0,0.8,0.2,1-0.3c0.5-0.8,1.1-1.5,1.8-2.1c0.7-0.5,2.7-1.8,2.7-1.8s0-0.3,0.1-1.2
	c0.1-0.8,0.1-1.8,0.1-1.8s1.8-1.7,2.6-1.8l0.1-6.6l-1.6,0.3c0,0,0.5-1.6,0.6-2c0-0.7,0-1.4,0-2.1h3.8c1,0,2-0.1,3-0.3
	c1-0.3,1.9-0.7,2.9-1.2c0.6-0.2,2.1-1.1,2.1-1.1c0.4,0.6,0.9,1.1,1.4,1.7c0.9,0.9,2,2.3,2.4,2.3s1.6,0.3,1.6,0.3
	c-0.4,0.4-0.8,0.8-1.2,1.2c-0.5,0.2-1,0.4-1.5,0.5c0,0,0.5,1,0.6,1.3c0.1,0.7,0.1,1.5,0,2.2c-0.1,0.8-0.3,1.5-0.7,2.2
	c0,0,1.1,0.2,1.3,0.5c0.3,0.4,0.6,0.7,0.9,1l35-26.6h21.1c0.5-0.1,1-0.2,1.4-0.3c1.5-0.2,2.2-0.7,2.8-0.8c0.8-0.1,1.5,0,2.3,0.2
	c0.4,0.1,0.8,0.3,1.2,0.3c0.4-0.4,0.9-0.6,1.4-0.8c1,0,2-0.2,3-0.4c0.7-0.3,1.4-0.7,2-1.2c0.2-0.3,0.3-0.6,0.3-1c0,0,1.8,0,2.2,0.3
	c0.3,0.3,0.6,0.8,1,0.8s1.3-0.2,1.7,0.1c0.9,0.4,1.9,0.9,2.8,1.5c0.4,0.3,1,0.5,1.5,0.6c0.2,0,3.2-0.1,4.1-0.1
	c0.8-0.1,1.5-0.3,2.2-0.5c0.6-0.1,2.5,0,2.8-0.1c0.4-0.1,1-0.7,1.8-1c0.9-0.3,1.9-0.3,2.8,0.1c0.4,0.2,2.2,1.1,2.5,1.3
	c0.5,0.3,0.9,0.7,1.3,1.1h37.4v21.8l1,1.5c2.2,3.7,4.2,7.5,6,11.4c0.7,1.6,2.5,7.7,2.5,16.5c0,9,0.4,19.2,0.4,19.6l0.1,1.5l2,2.9
	l-1,3.7l1.9,6.8l-1.7,3.6l0.4,2.7l-1.7,6c0,0-0.1,3.5,0,12.8v1l4.7,6.7l-4.5,10v0.8c-0.1,2.9-0.1,22.2-0.1,24.4v1.3l0.5,1.1
	c1,2,2.9,5.5,3.6,6.7l1.3,2.1l2.4,0.6c0.3,0.1,0.7,0.2,1.3,0.3c-1.6,4-9.2,22.5-9.2,22.5v9.6c0,0,3.1,9,3.2,9.5
	c0,0-3.2,23.7-3.3,24.2v31.5L280,826.5c0,0.2,0.1,0.4,0.1,0.5c0,0.2,1.3,0,1.3,0s0,3.4-0.1,3.6s-1,1.1-1,1.1s-0.3-0.6-0.4-0.9
	s-0.7-0.2-1-0.1c-0.5,0.4-0.9,0.9-1.2,1.4c-0.2,0.4-1.3,1.9-1.3,1.9s-0.2-0.9-0.2-1.1s-0.2-0.1-0.3-0.1l-1.9,2.9
	c0,0.1,0,0.3,0.1,0.4c0.1,0.3,0.3,0.6,0.6,0.8l-0.3,0.3c0,0-0.6,0.8-0.7,1s-0.6,1.2-0.9,1.8c-0.6,1.1-1,2.2-1.3,3.4
	c-0.2,1.1-0.4,2.1-0.4,3.2l-1.5-0.1c0,0-0.2,1-0.3,1.2s-1.2,2.1-1.2,2.1l-0.8-0.2c0,0-1.3,1.7-2,2.4c-0.7,0.7-2.2,2-2.2,2l-0.2,3.8
	l-2.2-0.1l-3.1,3L239.7,887c0,1.6,0.1,3.9,0,4.1c-0.6,0.6-1.3,1-2,1.4v2.3c-0.4,1.1-0.8,2.1-1.3,3.1l0.6,0.1v1.8
	c-1.1,0.5-3.9,3.5-3.9,3.5l-1.8,0.1l-5,3.6L158,1009.6c0.1,0.6,0.3,1.4,0.3,1.6s0.4,1.4,0.5,1.9c0,0.8,0,1.6-0.2,2.3
	c0,0.7,0,1.3,0.1,2c0.2,0.8,0.4,1.5,0.7,2.3c0.1,0.9,0.2,1.7,0.2,2.6c0.2,0.9,0.5,1.8,0.9,2.7c0.3,0.7,0.2,1.4-0.2,2l-0.6,1.3
	c-0.5,0-1.1,0.1-1.6,0.3c-0.6,0.2-1.2,0.5-1.5,0.6c-0.5,0.1-0.9,0.2-1.4,0.2c-0.2,0-1.2-1.3-1.5-1.4c-0.6,0-1.1,0-1.7,0.1l-0.1-2.2
	c-0.6,0-1.1-0.1-1.7-0.2c-0.5-0.1-1-0.3-1.4-0.6c-0.3-0.1-0.7-0.2-1-0.2L34.8,1194.8c0,0.6,0.1,1.2,0.2,1.8c0.1,0.2,0.2,0.5,0.2,0.8
	c0,0.5,0.1,0.9,0.3,1.4c0.2,0.6,0.1,0.7,0.1,0.7c-0.2,0.2-0.4,0.4-0.5,0.6c-0.1,0.2-0.9,1.1-1.1,1.4c-0.1,1.2-0.1,2.3,0,3.5h-1.3
	c-0.2,0-0.8,0.8-0.8,1.1s0,2.7-0.1,3s-0.4,0.5-0.7,0.6s-0.8,0.8-1.2,1.1s-1,1-1.2,1.2s-0.8,0.1-1.1,0.2c-0.4,0.2-0.7,0.5-0.9,0.8
	c-0.2,0.3-0.8,0.4-0.8,0.4l0.4-0.9c0.3-0.4,0.5-0.8,0.8-1.3c0.1-0.2,0.2-0.5,0.2-0.7c0,0-0.9,0.6-1.2,0.7c-0.5,0.1-1.1,0.1-1.6,0
	c-0.2,0-0.4-0.1-0.6-0.2l-7.4,11.1H58c0.3-0.1,0.5-0.2,0.8-0.3c0.4-0.3,0.8-0.7,1.1-1.1c0.2-0.4,0.4-0.7,0.6-1.1
	c0.5,0.1,1.1,0,1.6-0.1c0.5-0.2,1-0.5,1.4-1c0.2-0.3,0.3-0.7,0.4-1c0.1-0.3,0-1.8,0.4-2.1c0.4-0.3,0.7-0.7,1.1-1.2
	c0.5-0.7,1-1.5,1.3-2.4c0.2-0.8,0.4-2.2,0.5-2.7c0.1-0.7,0.2-1.3,0.1-2c0-0.5-0.3-2.3-0.5-3c-0.2-0.7-0.4-1.3-0.7-1.9
	c-0.2-0.5-0.3-1-0.2-1.4c0.2-0.6,0.7-1.1,1.3-1.3v1.6c-0.5,1.7,0.3,3.5,1.9,4.2c0.4,0.3,0.9,0.4,1.3,0.3c0.2,0,0.8,0.7,0.8,0.7
	l-1.5,0.9c-0.8,0.7-1.5,1.5-2.1,2.4c-0.3,0.7-0.4,1.4-0.4,2.1c0,0.7,0.1,5.2,0.1,5.6c0,0.4-0.2,0.9-0.4,1.2
	c-0.3,0.5-0.2,1.2,0.2,1.6l1.3,1.8H98v-2.8c-0.6,0-1.2-0.1-1.8-0.3c0.5-0.1,1-0.2,1.4-0.4c0.3-0.2,0.9-0.8,1.4-0.7
	c0.6,0.2,1.2,0.5,1.8,0.8c1,0.4,2.1,0.7,3.1,0.9c0.4,0,2.5,0.3,3.4,0.3c0.8,0,1.7-0.1,2.5-0.4c0.7-0.3,1.4-0.6,2-1.1
	c0.4-0.6,0.7-1.2,1-1.8c0.7-0.9,1.5-1.7,2.3-2.4c0.6-0.4,1.7-1,1.7-1c0-0.3-0.1-0.6-0.2-0.9c-0.2-0.4-0.5-0.6-0.6-0.9
	c-0.1-0.5-0.2-0.9-0.4-1.3c-0.2-0.3-0.5-0.5-0.8-0.6c-0.2-0.1-1.2-0.5-1.2-0.5s0.9-1.2,1.2-1s1.1,0.7,1.5,0.9c0.5,0.3,1,0.6,1.4,1.1
	c0.1,0.2,0.3,0.4,0.5,0.5h6.4c0.6-0.2,1.3-0.4,1.9-0.7c0.7-0.2,1.4-0.2,2.1-0.1c0.7,0,1.5-0.1,2.2-0.2c0.3-0.1,1.1-0.7,1.9-1.2
	s1.8-1,1.8-1s1.1,0.4,1.6,0.5c0.8,0.2,1.6,0.4,2.4,0.5h1.2c-0.2,0.3-0.5,0.5-0.7,0.7c-0.7,0.4-1.4,0.6-2.1,0.6c0,0,0.1,0.2,0.4,0.6
	s0.3,0.8,0.7,0.9c0.6,0,1.3,0,1.9,0c0.5,0,0.9,0.2,1.2,0.5c0.3,0.4,0.5,0.8,0.6,1.2c0,0.3,0.2,0.6,0.5,0.8c0.5,0.3,0.9,0.6,1.3,0.9
	c0.3,0.3,0.6,0.7,0.8,1.1c0,0.3,0.1,0.6,0.2,0.9c0.7,0.1,1.5,0.1,2.2,0c0.5-0.2,1-0.5,1.4-0.8c0.3-0.3,0.6-0.7,0.9-1.1
	c0.3,0.5,0.7,0.9,1.1,1.2c0.8,0.6,1.6,1.1,2.5,1.5c0.5,0.2,1,0.3,1.5,0.4c0.2,0,1.8,0.1,1.8,0.1c-0.1,0.4,0,0.9,0.1,1.3
	c0.3,0.4,0.6,0.7,0.9,1c-0.4,0.2-0.8,0.4-1.2,0.6c-0.3,0.1-1.7,0.5-2,0.6c-0.8,0.2-1.5,0.5-2.2,0.9h73.2l1.6-1.1
	c0.5-0.3,1.2-0.6,1.5-1c0.3-0.5,0.5-1.1,0.6-1.7c0-0.3-0.2-0.5-0.4-0.6l-1.5-0.7l-0.2-0.6c0.4,0.1,0.9,0.2,1.3,0.3
	c0.5,0.2,2.2,0.7,2.7,0.9s2.7,0.9,3.1,1.1c0.4,0.2,0.8,0.3,1.3,0.2c0.4-0.1,1-0.8,1.2-1.1c0.3-0.4,0.8-0.7,1.3-0.6
	c0.9,0,7.9,0.2,7.9,0.2c-0.2,0.4-0.5,0.7-1,0.8c-0.6,0.1-1.2,0.2-1.8,0.2c0.2,0.3,0.4,0.6,0.7,0.8c0.8,0.4,1.7,0.6,2.6,0.7
	c0.5,0.1,3.4,1,3.9,1.2l2.6,1h56.5l0.9,1.6c-1.6,1-5.9,3.7-5.9,3.7l-3.8,9.7c0,0,0.1,12.7,0.1,23.9c0.1,26.1,0.1,35.5,0.2,36.5
	l0.4,4.3l8.9,21.2c-0.4,1-0.8,2.3-1.3,3.6c-2.1,5.6-3.1,8.3-3.4,9.4l-4,16.7c0,0,2.5,22.2,3.2,26c0.5,3.1,4.1,19,5.9,23.6l0.4,0.9
	l0.6,0.7c1.8,2.2,4.6,5.1,6.6,7.2l0.6,0.6c0.4,1,0.9,2.3,1.5,3.5c0.6,1.4,1.2,2.9,1.7,4c0.3,1.9,0.8,4.8,1.5,8.7
	c0.3,1.4,0.5,2.8,0.7,3.8l-0.1,0.3c-0.4,1.2-0.7,2.4-1,3.6l-0.2,0.8v0.8c0.2,3,0.6,5.9,1.2,8.8l0.2,1.3l0.2,0.8
	c1.5,4.7,19.5,56.3,24,67l3.7,8.9c0.4,1,1.5,1.4,2.4,1c0.5-0.2,0.8-0.6,1-1l3.7-8.9c3.4-8.1,14.6-39.8,20.6-56.8
	c1.7-4.9,3-8.6,3.6-10.1c0.9-2.7,2.4-7.2,4-12.4l0.3-1.1l-0.1-1.2c-0.4-5-0.7-8-0.8-9.6c1-1.9,2.7-5,3.2-6s2.4-4.5,3.8-6.9l0.8-1.5
	c0.5-0.9,1.2-2.2,1.7-3.5l0.3-0.8c0.4-1.4,0.8-2.7,1-3.6c1.5-5.4,4.6-19.5,5.1-22.7c0.8-3.9,2.9-22.1,3.2-25.1
	c0.8-10.3,1.7-123.3,1.7-123.3l-3.6-8.4h42.9c1-0.2,2-0.4,3-0.7c0.8-0.4,1.6-0.8,2.3-1.3c0.2-0.2,0.5-0.4,0.7-0.6
	c0,0,1.1,0.5,1.5,0.6c0.9,0.4,1.8,0.7,2.7,0.8c0.7,0,3.2,0,3.9-0.1c0.6-0.1,1.2-0.3,1.7-0.7c0.4-0.4,1-0.7,1.5-0.6
	c0.8,0,1.2,0,1.5-0.3c0.3-0.4,0.4-1,0.3-1.5c0,0,1.3,0,2.3-0.1c0.8,0,1.5-0.2,2.2-0.6c0.3-0.3,0.7-0.4,1.2-0.4
	c0.4,0,1.3,0.5,1.7,0.6c0.6,0.2,1.2,0.3,1.8,0.4c0.6-0.2,1.1-0.5,1.6-1c0,0,1.7-1.7,2.1-2.1s1.8-0.3,2,0c0.3,0.4,0.7,0.9,1.1,1.3
	c0.7,0.4,1.4,0.7,2.1,0.9c0.4,0.1,0.7,0.3,1.1,0.4c0.4,0.5,0.9,0.9,1.4,1.3c0.5,0.3,1,0.5,1.6,0.7c-0.3,0.3-0.6,0.7-0.8,1.1
	c0,0.3,0.1,0.9-0.2,1s-1.2,0.3-1.4,0.5c-0.1,0-0.2,0.1-0.2,0.2h73.6c-0.2-0.3-0.4-0.7-0.6-1c-0.4-0.4-0.8-0.8-1.2-1.2l1.9-1
	c0.6-0.3,1.7-1.2,2.1-1.2c1.1,0,2.2,0,3.3-0.1c1.2-0.2,2.3-0.5,3.4-0.8c1.1-0.5,2.1-1.1,3.1-1.7c0,0,1.4,0.9,2.2,1.3
	s2.9,1.5,3.5,1.8c0.7,0.3,1.4,0.5,2.2,0.6c0.5,0,3.8,0.1,4.2,0.2c0.7,0.2,1.3,0.5,1.9,0.9c0.7,0.2,1.4,0.3,2.1,0.3
	c0.7,0,1.8,0.1,2.4,0.1l1.9,0.2c0,0,0-0.9,0.3-1.2c0.5-0.2,1-0.4,1.5-0.4c0.5-0.2,1-0.3,1.4-0.4c0.4,0,1.2,0.1,1.4,0.5
	s0.2,0.7,0.6,1.2c0.7,0.8,1.6,1.4,2.5,2h29.9l6.1-18.3c0-0.2-0.1-0.3-0.2-0.5c-0.2-0.2-0.3-0.5-0.4-0.7c-0.1-0.2-0.1-0.5-0.1-0.7
	c-0.9,0-1.8,0.1-2.7,0.3c-1.4,0.2-2.9,0.7-4.2,1.3c-1.5,0.7-2.9,1.5-4.2,2.3c-1.1,0.8-2.1,1.6-3,2.6h-3.1l-1.5-2
	c-1-1.1-2.1-2-3.3-2.7c-1.5-0.9-3.4-2-3.4-2s1.1-0.2,1.7-0.4c0.6-0.3,1.2-0.6,1.7-1.1c0.3-0.2,0.7-0.3,1-0.2
	c0.2,0.1,1.5,0.7,1.5,0.7l0.6,0.7c0,0,0.3-0.8,0.6-1.2s0.9-1.8,0.9-1.8s-0.8,0.2-0.9-0.1c-0.1-0.4-0.3-0.9-0.6-1.3
	c-0.2-0.3-0.9-1.1-1.3-1.1s-1.4-0.1-1.4-0.1s1.5-2.3,1.7-2.8c0.1-0.5,0.3-0.9,0.6-1.3c0.3-0.4,1.3-1.8,1.5-2.2
	c0.2-0.4,0.2-0.8,0.2-1.2c0-0.3,0.1-1,0.1-1c0.5-0.1,1-0.2,1.5-0.3c0.5-0.2,0.9-0.4,1.3-0.7c0.7-0.7,1.4-1.5,2-2.3
	c0.2-0.4,0.6-1.2,0.6-1.2s1.9,0.8,2.3,1.1c0.7,0.3,2.3,1,3,1.2c0.8,0.3,1.5,0.5,2.3,0.6c0.4,0.1,1.9,0.3,1.9,0.3
	c0,0.3-0.1,0.6-0.2,0.8c-0.2,0.3-0.5,0.6-0.5,1c0,0.4,0,0.7-0.2,1.1c-0.5,0.5-1.1,1-1.7,1.4c-0.2,0.2-0.4,0.4-0.5,0.6
	c0.4,0,0.8,0,1.2,0c0.6-0.1,2.2-0.4,2.7-0.4s3.2,0.1,3.2,0.1c0.6-0.5,1.2-1,1.8-1.4c0.7-0.3,1.4-0.6,2.1-0.8c0.2,0,0.4,0,0.6,0
	l61.7-185.1L621.3,1073.5z M487.9,916.9c-4.6-1.2-5.9-3.2-6.2-4.6s2.2-4.6,4.2-7.1s6.4-5.3,14-7.5
	C494.8,903.6,487.9,916.9,487.9,916.9L487.9,916.9z M487.5,616.9c0.5-0.5,1-0.6,1.3-0.9c0.3-0.3,2-1.5,2.1-1.8s0.4-1.4,0.6-1.8
	c0.2-0.5,2.4-4.3,2.5-4.5s0.3-0.6,0-0.6h-1c0.7-1.1,1.4-2.1,2.2-3.1c0.3-0.2,1,0,1.2-0.3s2.4-3.1,2.7-3.4c0.5-0.4,1-0.7,1.5-1
	c0.3-0.2,0.7-0.4,1.1-0.5h1.9l35.9-44.6c0-0.2-0.1-0.4-0.2-0.5c-0.2-0.2-0.6-0.4-1.2,0.1s-2.3,2.4-2.3,2.4l0.1-2.2
	c0,0,1.7-2.3,2.3-3.2c0.6-0.9,1-1.9,1.4-2.9c0.1-0.2,2.1-0.8,3.2-1.4c1.2-0.6,2.6-1.4,2.6-1.4c0.2,0.3,0.4,0.6,0.7,0.9l24.2-30.1
	l-63.6,115.4c0,0.4,0,0.8-0.2,1.2c-0.3,0.7-0.3,1.5-0.1,2.3c0.5,1.3,1.1,2.5,1.8,3.7c0.5,1.3,0.7,2.6,0.5,4c0,1-1.5,2.7-2.1,3.2
	c-0.6,0.5-2.7,2.4-3.2,2.8c-0.4,0.3-0.9,0.3-1.3,0c-0.1-0.2-0.7-0.2-0.7-0.2c-0.2,0.4-0.4,0.8-0.7,1.2c-0.8,1-1.6,1.9-2.6,2.8
	c-0.6,0.5-1.7,1.2-1.7,1.2s-0.2,1.9-0.2,2.2c-0.3,0.6-0.7,1.1-1.1,1.7c-0.6,1.1-1.1,2.1-1.5,3.3c-0.3,0.9-0.5,1.8-0.6,2.8l-1.7,0
	c-0.4-0.1-0.8-0.3-1.1-0.6c-0.1-0.4-0.2-0.8-0.2-1.2l-25.1,45.5l0.2,0.9c0.2,0.3,0.3,0.6,0.4,0.8c0.1,0.5,0.1,0.9,0,1.4
	c0.7,0.4,1.3,1,1.7,1.8c-0.1,0.2-0.2,0.4-0.3,0.7c-0.1,0.6-0.1,1.1,0,1.7c0.2,0.7,0.7,1.3,1.4,1.8l1.2,0.8v1.5l-0.7,0.5
	c-0.7,0.4-1.4,0.8-2,1.3c-0.3,0.4-0.5,0.8-0.6,1.3c-0.1,0.3-0.3,0.5-0.6,0.4c-0.1,0-0.2-0.1-0.2-0.1c-0.4-0.4-0.8-0.8-1.2-1.3
	c-0.1-0.4-0.2-0.7-0.2-1.1c0,0-1.2,0.6-1.4,0.6c-0.4,0-0.8,0-1.2,0c-1,0.7-2.1,1.4-3.2,2l-1.7,0.7l-16.2,29.5l-33,16.4
	c0-18.1-0.1-35.5-0.1-51.4v-0.4h1.7l2.5-3.1c0-0.3,0.1-0.7,0.1-0.8c0-0.3-0.1-0.6-0.2-0.9c-0.1-0.2-1.2-1.5-1.2-1.5
	c0.4-0.2,0.8-0.5,1.2-0.7c0.4-0.4,0.7-0.8,0.9-1.3c0.1-0.3,0.2-0.6,0.3-0.8c0.7-0.7,1.5-1.3,2.3-1.9c1-0.3,2.1-0.6,3.2-0.7
	c0.2,0,0.3,0,0.5,0.1l69.2-86c-0.1-0.1-0.3-0.1-0.4-0.1l-1.1,0.3C486.5,618.4,487,617.6,487.5,616.9L487.5,616.9z M409.4,567.9
	c1.7-3.9,3.7-7.6,5.9-11.3l1-1.5v-21.8h18.8c0.5-0.3,1-0.5,1.5-0.7c0.8-0.2,1.6-0.6,2.3-1c0.6-0.7,1.1-1.5,1.5-2.3
	c0.5,0,0.9,0.1,1.4,0.3c1.1,0.2,2.3,0.3,3.4,0.1c0.8-0.3,1.6-0.7,2.3-1.2c0.5-0.4,1.7-1.2,2.1-1.5c0.4-0.3,0.7-0.6,1-1
	c0.1,0.4,0.2,0.8,0.1,1.2c-0.1,0.5-0.8,1.8-1,1.8s-1.1,0.1-1.1,0.1s1.1,0.6,1.5,0.9c0.5,0.3,1.7,0.5,2.2,0.8s0.9,0.9,1.3,0.9
	c0.4,0,1-0.2,1.5,0.1c0.6,0.4,1.2,0.9,1.7,1.5H475l-23.3,35c0.5,0.5,1,1,1.4,1.6c-0.2,0.5-0.5,1.1-0.6,1.6c-0.2,0.8-0.3,1.7-0.5,2.6
	c-0.2,0.7-0.6,1.2-1.2,1.6c0,0-0.2-0.5-0.3-0.8s-1-0.5-1-0.5s-0.2,1.1-0.2,1.3c-0.5,1-1.2,1.9-1.9,2.7c-0.6,0.5-1.9,1.6-2.3,2
	c-0.4,0.4-0.6,2-0.7,2.4c-0.4,0.8-0.8,1.5-1.3,2.2c-0.2,0.3-0.3,0.7-0.2,1.1l-1,0.4c-0.7,0.4-1.4,0.9-2,1.4c-0.9,0.7-1.2,1-1.2,1
	l-0.2-0.7l-2.3,3.4c-0.1,0.5-0.2,1-0.3,1.2c-0.2,0.4-0.7,1.2-0.9,1.7c-0.1,0.6-0.2,1.3-0.2,1.9c-0.2,0.5-0.5,0.9-0.9,1.2
	c-0.4,0.2-0.9,0.3-1.4,0.2c-0.3,0.1-0.6,0.3-0.9,0.5L407,635.7l-0.1-17.6c0,0-2.4-1.3-2.5-1.4c0.2-0.3,2.5-3.7,2.5-3.7
	s-0.1-27.5-0.1-28.5C406.8,575.8,408.6,569.6,409.4,567.9L409.4,567.9z M328.8,78.7V70h-3c-1.2-6.3-4.8-11.9-10.1-15.6
	c2.5-5.8,8.2-9.3,10.2-10.4l2.7-1.4l5.8-13.9l5.9-3.2c0,0-0.2-6.9-0.2-7.4v-1.8l-0.5-1l2.6-6.8h21.8l13.5,34l2.7,1.5
	c2.5,1.3,7.8,4.8,10.2,10.4c-5.3,3.7-8.9,9.3-10.1,15.6h-3v8.6h-24.7l-11.9,4.6l-2.6-4.5L328.8,78.7z M370.1,111.4
	c-0.2,1.5-0.7,2.9-1.6,4.1c-1.1,1.7-2.3,3.2-3.7,4.6c-1.7,1.8-3.4,3.4-5.3,4.9c2.1,1.8,4.1,3.6,5.9,5.6c1.9,2.1,3.4,4.5,4.4,7.1
	c0.4,1.4,0.4,2.8,0.3,4.2c0,0.9,0.1,5.6,0,7.1c-0.2,1.5-0.7,2.9-1.6,4.1c-1.1,1.7-2.3,3.2-3.7,4.6c-1.7,1.8-3.4,3.4-5.3,4.9
	c2.1,1.8,4.1,3.6,5.9,5.6c1.9,2.1,3.4,4.5,4.4,7.1c0.4,1.4,0.4,2.8,0.3,4.2c0,0.9,0.1,5.6,0,7.1c-0.2,1.5-0.7,2.9-1.6,4.1
	c-1.1,1.7-2.3,3.2-3.7,4.6c-1.7,1.8-3.4,3.4-5.3,4.9c2.1,1.8,4.1,3.6,5.9,5.6c1.9,2.1,3.4,4.5,4.4,7.1c0.4,1.4,0.4,2.8,0.3,4.2
	c0,0.9,0.1,5.6,0,7.1c-0.2,1.5-0.7,2.9-1.6,4.1c-1.1,1.7-2.3,3.2-3.7,4.6c-1.7,1.8-3.4,3.4-5.3,4.9c2.1,1.8,4.1,3.6,5.9,5.6
	c1.9,2.1,3.4,4.5,4.4,7.1c0.4,1.4,0.4,2.8,0.3,4.2c0,0.9,0.1,5.6,0,7.1c-0.2,1.5-0.7,2.9-1.6,4.1c-0.3,0.5-0.7,1-1,1.4l0.2,3.8H365
	c-0.8,0.9-1.6,1.8-2.3,2.8c-0.4,0-0.9,0-1.4-0.1c-0.8,0.7-1.5,1.3-1.9,1.5h-13c-1.9-1.5-3.7-3.1-5.3-4.9c-1.4-1.4-2.7-3-3.7-4.6
	c-0.8-1.2-1.4-2.7-1.6-4.1c-0.1-1.5,0-6.2,0-7.1c-0.2-1.4-0.1-2.8,0.3-4.2c1-2.6,2.5-5.1,4.4-7.1c2.8-3,5.9-5.6,5.9-5.6
	c-1.9-1.5-3.7-3.2-5.3-4.9c-1.4-1.4-2.7-2.9-3.7-4.6c-0.8-1.2-1.4-2.7-1.6-4.1c-0.1-1.5,0-6.2,0-7.1c-0.2-1.4-0.1-2.8,0.3-4.2
	c1-2.6,2.5-5.1,4.4-7.1c1.9-2,3.9-3.8,5.9-5.6c-1.9-1.5-3.7-3.1-5.3-4.9c-1.4-1.4-2.7-3-3.7-4.6c-0.8-1.2-1.4-2.7-1.6-4.1
	c-0.1-1.5,0-6.1,0-7.1c-0.2-1.4-0.1-2.8,0.3-4.2c1-2.6,2.5-5.1,4.4-7.1c1.9-2,3.9-3.8,5.9-5.6c-1.9-1.5-3.7-3.1-5.3-4.9
	c-1.4-1.4-2.7-3-3.7-4.6c-0.8-1.2-1.4-2.7-1.6-4.1c-0.1-1.5,0-6.1,0-7.1c-0.2-1.4-0.1-2.8,0.3-4.2c0.4-1.1,1-2.2,1.5-3.2l-0.8,0.1
	l-0.4-2.2c0,0,3.2-2.4,4.1-3.2l1.3,0.1c2.4-2.4,4.6-4.2,4.6-4.2c-1.9-1.5-3.7-3.1-5.3-4.9c-1.4-1.4-2.7-3-3.7-4.6
	c-0.8-1.2-1.4-2.7-1.6-4.1c-0.1-1.5,0-6.1,0-7.1c-0.2-1.4-0.1-2.8,0.3-4.2c1-2.6,2.5-5.1,4.4-7.1c1.9-2,3.9-3.8,5.9-5.6h13
	c2.1,1.8,4.1,3.6,5.9,5.6c1.9,2.1,3.4,4.5,4.3,7.2c0.4,1.4,0.4,2.8,0.3,4.2C370.1,105.3,370.2,109.9,370.1,111.4L370.1,111.4z
	 M308.1,563.4c-1.8-4-3.8-8-6.1-11.8v-23.4c5.7-5.5,10.9-11.4,15.5-17.9c4.7-6.6,7.2-14.5,7-22.5c0.1-1.5,0.2-3,0.2-4.5
	c0,0,6.7-6.9,7.7-7.6c1.4-1.1,6-6.5,6-6.5l-7.8-2.1l-5.8-4.2v-22.3h11v-13.4H321c0-11.6-0.1-35.5-0.1-36.7c0-3-0.3-6.1-1-9
	l-4.1-14.5l-6.8,13.5c-0.3,0.5-0.6,1.1-0.9,1.7c-0.4-0.2-0.9-0.5-1.2-0.7c-0.5-1.1-0.9-2.3-1.2-3.3l-1.5-5l-5.2,1
	c-1.1,0.2-2.3,0.3-3.4,0.4c-3.1-2.1-11.4-8.9-15.5-14.6l-5.5-7.6l-4.5,8.1c-4.8,8.7-8.1,24-8.5,38.6c-21.7,5.4-62.2,15.5-82.7,20.6
	c3.2-8,7.2-17.8,8.6-21c1.1-1,1.8-1.7,2.7-2.7c1.6-0.9,5.3-2.8,7.5-4l4.2-2.2l-1.3-4.6c-0.3-1.1-1.1-4-1.6-6.1
	c0.2-1.4,0.5-2.8,0.7-4.5c5.1-9.1,14.7-20.6,22.2-28.6c9.1-10.1,27.7-24.5,35-27.8l4-1.8l-0.6-4.4c-0.3-2.1-0.6-4.9-0.8-7.9
	c7,6.5,15.4,13.8,20.6,17l5,9.5l11.9,0.1c5.8,3,19.2,7.5,25,8.4l10,1.6l-3.5-9.5c-3.1-8.5-11.1-17-15.6-20.7
	c-2.2-1.7-4.6-3.1-7.1-4.1V301c4.4-0.6,8.7-1.5,13-2.8c3.4-1,6.6-2.6,9.5-4.8h4.7c-0.3-1.1-0.8-2.1-1.2-3.2c2.3,0.5,4.5,1.6,6.3,3.2
	h40.3c2.9,2.1,6.1,3.7,9.5,4.8c4.2,1.3,8.6,2.2,12.9,2.8v5.5c-2.6,1-5,2.4-7.1,4.1c-4.6,3.7-12.5,12.3-15.6,20.7l-3.5,9.8l10.3-2
	c15.5-3.1,30.2-9.6,43-18.9l1.8,1.2l2.9-1.1c1-0.4,2-0.6,3-0.7l4-0.1l4.5-12.1c1.1-1,2.2-2,3.2-3c-0.2,2.8-0.5,5.4-0.8,7.4l-0.6,4.2
	l3.8,1.9c5.5,3,10.6,6.5,15.5,10.3c0.1,0.5,0.2,0.9,0.3,1.3c1,2.1,2,4.2,3.2,6.2c1.5,2.2,8.1,5.6,8.4,5.7s0.5,0.1,4.7,1.1
	c2.2,2.2,4.3,4.4,6.3,6.6c10.5,11,20.4,25.9,29.2,44.3c-0.3,1-0.8,3.3-2.1,8.4l-0.6,2.3l8.4,14c-23.5-5.7-64.1-15.8-78-19.2
	c-0.4-14.6-3.7-29.9-8.5-38.6l-5.2-9.3l-5.2,9.3c-2.2,3.9-11.2,11.5-15.4,14.4c-2.2,1.6-8.2,5.1-12.3,7.3c-0.3-0.6-0.7-1.2-0.9-1.7
	l-6.8-13.5l-4.2,14.6c-0.7,3-1,6-1,9c0,1.2-0.1,25.1-0.1,36.7h-14.6v13.4h11v19.6l-1.4,1.4c-2.2-0.6-8.4-2.8-8.4-2.8l-17.3-9.3
	c0,0,18.2,18.2,20.8,19.6c1.8,0.7,3.6,1.3,5.5,1.8l0.8,1.9c0,11.9,0.1,13.1,0.1,14.3v0.7c-0.2,8.1,2.3,16,7,22.5
	c4.6,6.5,9.8,12.5,15.5,17.9v23.4c-2.2,3.8-4.2,7.7-6,11.7c-1.7,4-3.5,12.1-3.5,21.1c0,0.9,0.1,24.6,0.1,24.6l-1.8,1.8l-5.4,9.2
	c0,0,6.8,2.7,7.2,3v11.4c-0.3,1-1.5,4.6-1.5,4.6l-4.5,3.8l1.2,3.8l3.3,6.1c0,0,0.1,1.1,0.2,2.6l-82,123.2v-12c0.1-0.7,3-27.4,3-27.4
	l-3-9.8l-0.1-5.3l6.4-15.6l3.8-4.4c0,0,10.8-10.5,11.8-11.8c1-1.3,3.9-5.6,4.6-7.6s3.9-4.3,5.9-5.9c2-1.6,3.6-3.3,8.2-10.8
	s13.2-18.7,13.2-18.7s-15.8,10.8-17.8,12.2s-23.7,10.8-23.7,10.8l-8.5,9.1l-4,2.8c0-5.3,0-16.7,0.1-20.2c0.7-2.1,2-5.9,2.9-8.5
	c0.5-1.3,0.8-2.4,0.9-2.7l1.9-4l-6-5l0.1-11.7l1.7-6.5l-0.2-2.3l1.2-3.9l-1.8-8.4l1.1-4.8c0,0-1.7-4-1.8-4.1
	c-0.1-3.2-0.3-10.9-0.3-17.7C311.5,575.5,309.8,567.4,308.1,563.4L308.1,563.4z M379.7,853.4l-50.4,20.2l-4.8-46.7l48.5-19.3
	L379.7,853.4z M132.1,1164.9l77.7-140.9c-0.2-0.7-0.4-1.6-0.5-2c-0.2-0.8-0.6-2.2-0.7-2.4s-0.2-0.7,0.1-0.9c0.5-0.7,0.9-1.4,1.3-2.1
	c0.2-0.4,0.9-2.3,1-2.7c0.1-0.5,0.2-1,0.3-1.5l0.9-1.2c0,0,1.8,0.1,2.2,0.1c0,0,0.1-0.9,0.4-1.1c0.5-0.3,1-0.5,1.6-0.7
	c0.5-0.1,1-0.3,1.5-0.6c0.1,0,0.2-0.1,0.3-0.1l5.2-9.6v-1.9c0,0,1.1-1.4,1.5-2s1.2-1.9,1.5-2.3c0.3-0.4,0.6-0.9,0.9-1.2
	c0.1,0,0.2-0.1,0.3-0.1l3.2-5.8v-4.6l1.9-2l0.4-0.4l0.6,0.7c0,0,1.2-2.6,1.4-3.2c0.2-0.6,0.4-1.3,0.5-1.9c0-0.5-0.2-1.1,0.3-1.5
	s1.7-1.5,2-1.8s1.8-2.3,1.8-2.3l-0.2-1.1c0,0,0.9-0.9,1.2-1.3s0.6-0.8,0.6-0.8v-2.6c0,0,1-0.5,1.3-0.6s0.7-0.9,1.1-1
	c0.2-0.1,0.5-0.1,0.7-0.2l18.2-32.9l0.3-0.2c0.2-0.4,0.4-0.7,0.7-1c0.3-0.3,2-1.5,2.2-1.8c0.4-0.2,0.7-0.4,1.1-0.6V924
	c0.4,0,0.7-0.1,1.1-0.3c0.3-0.3,2.1-2,2.4-2.3s2.1-2.3,2.5-2.7c0,0,0.7,0.3,0.8,0.4c0.1,0.2,0.3,0.4,0.5,0.6c0,0,1.8-0.8,2.7-1.2
	c0.7-0.3,1.5-0.6,2.3-0.8c0.3,0,1.4-0.3,1.4-0.3s0.9-1.2,1.3-1.9c0.6-0.9,1.3-1.7,2-2.5c0.4-0.4,1.1-1.1,1.1-1.1
	c-0.1-0.6-0.2-1.1-0.3-1.7c-0.2-0.8-0.4-1.5-0.6-2.3c0.6-0.1,1.1-0.2,1.7-0.4c1.1-0.6,2.2-1.3,3.2-2c0.7-0.6,1.4-1.3,2.1-2
	c0.2-0.3,1.1-2,1.1-2c0,0.5,0.1,0.9,0.2,1.4c0.2,0.4,0.5,0.9,0.4,1.1c-0.2,0.4-0.5,0.9-0.9,1.2c0.3,0.3,0.6,0.7,0.8,1.1
	c0.6,1.4,1,2.8,1.1,4.3c0.8,0.1,1.7,0.1,2.5,0c0.6-0.1,1.7-0.5,2.3-0.5h1.1l0.5-0.2v46.5l-55.2,68.5c0,0.8-0.1,1.7-0.1,2
	c0,0.6,0.1,2.4,0.1,2.4l1.2,0.7c0.5,0.3,1,0.5,1.5,0.9c0.2,0.4,0.3,0.8,0.2,1.2c-0.1,0.5-0.1,1.1,0,1.6c0.2,0.4,0.4,0.9,0.6,1.3
	c0,0.4,0,0.8,0.1,1.2c0.1,0.3,0.2,0.7,0.3,1c0,0-0.9,0.6-0.9,1c0,0.3,0.1,0.7,0.4,0.9c0.4,0.2,0.8,0.3,1.2,0.2
	c0.4-0.3,0.9-0.7,1.2-1.1c0.2-0.2,0.7-0.7,0.8-0.6c0.5,0.3,1.1,0.6,1.7,0.7c0.2,0,0.5,1.1,0.8,1.4s0.6,0.8,0.6,0.8l0.1,1.5
	c-0.4-0.5-0.9-1-1.4-1.5c-0.4-0.3-0.7-0.6-1.1-1c-0.2-0.2-0.2-0.8-0.7-0.6s-0.7,0.5-0.7,0.6c0,0.1-0.1,0.3-0.2,0.4
	c0,0-2.1-0.1-2.4-0.1s-0.3-0.2-0.5-0.8c-0.2-0.4-0.2-0.9-0.2-1.3c0.1-0.6,0.1-1.1,0-1.7c0-0.4-0.2-0.8-0.5-1.1
	c-0.1-0.2-0.1-0.4-0.2-0.6l-1.4-0.1c-0.4,0-0.8-0.1-1.2-0.4c-0.3-0.4-0.6-0.7-0.9-0.9c-0.3-0.1-0.7-0.1-0.9,0.1
	c-0.4,0.3-0.9,0.5-1.3,0.7c-0.3,0.1-0.6,0.1-0.9,0c-0.1-0.2-0.2-0.4-0.3-0.6c-0.2-0.2-0.3-0.5-0.3-0.7c0-0.2,0.4-0.5,0.4-0.7
	c0-0.1,0-0.3-0.1-0.4L132.1,1164.9z M310.4,1057.1c-1,1.4-8.6,12-8.6,12l0.7,9.3l1.6,5.3c0,0-1.5,10.7-1.8,13l-2.9,2.5l-0.1,15.6
	l3.1,2.4c0.7,2.7,2.5,10,2.5,10l4.7,3.2c0,0,0.7,2.1,0.8,2.9c-0.1,0.2-1.1,2.2-1.1,2.2l0.7,2.5l-3,2.7h-68.3l16.4-24.6
	c0-0.4,0-0.9,0-1.3c0.1-0.6,0.3-1.7,0.3-1.9c0-0.3,0-0.5,0.1-0.8H253c-0.6-0.1-1.1,0-1.7,0.1l-1,0.8c-0.2,0.2-0.7,0.3-0.8,0.1
	s-0.7-1.1-0.8-1.2s-0.5-0.4-0.5-0.4s-1.5-0.3-1.7,0c-0.2,0.2-0.5,0.4-0.8,0.4c-0.3,0-0.5,0-0.8-0.1c0,0-0.6,0.6-0.7,0.4
	c-0.2-0.2-0.4-0.4-0.5-0.7l-2.8-0.1c0,0,1.7-0.5,2.4-0.7c0.7-0.2,1.4-0.5,2-0.9c0.7-0.4,1.3-1,1.8-1.7c0.2-0.4,0.2-0.9,0-1.3
	c-0.1-0.3-0.6-0.8-0.6-1.1c-0.1-0.7,0-1.3,0.1-2c0.2-0.4,0.3-0.9,0.4-1.4c0-0.3,0.2-2.2,0.2-2.2c-0.5-0.1-1-0.3-1.4-0.6
	c-0.3-0.3-0.6-0.6-1-0.8c-0.2,0-1-0.1-1-0.1s-0.1,0.7-0.3,0.7c-0.4,0-0.8,0-1.2-0.1c-0.6-0.1-1.2-0.5-1.5-1
	c-0.3-0.3-1.3-1.3-1.3-1.3c0.4-0.4,0.8-0.8,1.2-1.2c0.5-0.5,1-1,1.2-1.7c0.1-0.3,0.2-2.6,0.2-2.6s0.5,0.9,0.7,1.2
	c0.6,0.4,1.2,0.8,1.8,1.1c0.5,0.3,0.9,0.7,1.2,1.2c0.2,0.3,0,1.1,0.2,1.4s0.6,0.9,1,0.9s1-0.2,1.3,0c0.4,0.3,0.9,0.7,1.2,1.1
	c0.4,0.2,0.9,0.3,1.3,0.3c0.3,0.1,0.7,0.1,1,0.3c0.3-0.5,0.5-1.1,0.8-1.6c0.2-0.7,0.3-1.3,0.3-2c0-0.4,0.2-0.7,0.5-0.9
	c0.4-0.3,0.7-0.7,1-1.1c0.2-0.3,0.4-0.7,0.6-1c0.3,0.1,0.5,0.3,0.7,0.5c0.2,0.5,0.3,1,0.3,1.4c0,0.5-0.1,1.1-0.2,1.6
	c-0.1,0.3-0.5,0.9-0.4,1.2s0.7,0.5,0.9,0.9s0.4,0.6,0.7,0.8s1,0.1,1.2,0.3c0.2,0.3,0.4,0.6,0.6,0.9c0,0,0.6,0.3,0.9,0.1s0.7-1,1-1.4
	c0.4-0.5,0.8-0.9,1.4-1.2c0.4-0.2,0.8-0.3,0.8-0.3c0-0.3,0.1-0.6,0.3-0.9c0.3-0.4,0.7-0.8,1.2-1c0.4-0.1,0.8-0.2,1.2-0.3
	c0.3,0,0.5-0.1,0.6-0.3c0.3-0.5,0.7-0.9,1.1-1.3c0.3-0.1,0.5-0.3,0.7-0.6c0.1-0.3,0.3-0.6,0.4-0.8c0.2-0.2,0.6-0.3,0.8-0.1
	c0.3,0.2,0.6,0.4,1,0.5l36.2-54.4l1.9,4.2l5,4.4L310.4,1057.1z M395.7,1115.5c-0.4,0.6-4.3,9-4.3,9l-6.7,3.2l-4.6,1.1l-6.4,2.6
	l10.3,13.7c0,0,11.4,9.1,11.7,9.2c0,14-0.1,27.5-0.1,40.5l-3.2,15.2c0,0,0.6,3.1,0.8,4.6l-3.4,5.2l5.6,13
	c-0.3,69.7-0.9,110.1-1.6,119.8c-0.4,4-2.4,20.8-3,23.9s-3.6,16.8-4.9,21.8c-0.2,0.8-0.5,1.8-0.9,3c-0.4,0.9-0.8,1.7-1.2,2.3
	l-0.8,1.5c-1.9,3.4-3.5,6.3-4,7.3s-3.3,6.1-3.8,6.9l-0.7,1.3v1.5c0,0.5-0.1,1.6,0.8,11.1c-1.5,4.6-2.7,8.6-3.5,10.9
	c-0.5,1.4-1.8,5.1-3.6,10.1c-4,11.2-10.2,28.9-15,41.8c-6.1-16.7-14.8-41.4-17.4-49.4c0.7-2.2,2-6.6,2.2-7.6
	c0.3-1.3,4.6-1.6,5.6-4.6s3.9-14.3,3.9-14.3c-2.6-1.7-4.9-3.6-7.2-5.7c-1.3-1.4-7.9-7.6-9.2-9.3c-1-1.2-3.7-2-5-2.4
	c-1.6-1.7-3.9-4-5.5-5.9c-1.5-4.4-4.4-17.2-5-20.6c-0.6-2.7-2.3-17.2-2.8-22.6c0.3-1,5.9-10.8,7.1-13s4.3-8.4,6.5-11.2
	c1.8-2.2,3.8-4.3,6-6.1c3.1-2.1,5.9-4.6,8.2-7.4c0,0-18-8.2-21.7-11.6c-1.1-1-7.1-10.7-7.1-10.7c0-6.3-0.2-51-0.2-54.3
	c0.3-0.6,0.5-1.2,0.8-1.8l7.9-2.6l11.7-6.7l-5.1-6.2l-6.5-12.5c0,0-8-11-8.7-12.2v-38c1.2-2.2,5-8.2,5-8.2l0.3-3.7l5.9-5.2
	c0,0-1-4.6-1.1-5.3l0.9-1.7l-2.7-11.1c0,0-3.4-3.2-4.6-4.2c-0.6-2.1-2.4-9.3-2.4-9.3l-1.7-1.3v-6.4l2-1.4l2.9-19.3l-2.6-9.7l1.9-2.7
	c2.6-0.8,5.1-1.6,7.6-2.7c2.6-1.6,16.2-16.7,16.2-16.7l-13-7.5l-8-7.7l-3.9-8.6l81.2-122c0.1,45.4,0.1,88,0.1,127.6
	c-5.3-2.6-10.9-5.2-12.4-5.5c-3-0.7-19-4.1-21.6-6.1s-13-5.8-13-5.8l-12.9-5.8c0,0,8.3,11.6,15.2,19.6c5.4,4.8,8.4,7.7,9.6,8.9
	c3,2.9,19.4,20,19.4,20l10.3,13.4l1.2,8.2l4.2,10.4L395.7,1115.5z M353,243.2c-0.3,0.2-0.6,0.5-0.9,0.7c-2.2,2-5.2,4.7-7.5,7.1
	c-1.9,2.1-3.5,4.4-4.9,6.8c1.6,1.8,3.3,3.6,5.1,5.3c1.2,1.2,5.9,5.2,7.7,6.8c0.6-1.4,1.3-2.6,2.2-3.8c1.1-0.1,2.3-0.2,3.4-0.2
	c1.4-1.2,2.7-2.4,3.2-2.9c1.8-1.7,3.5-3.4,5.1-5.3c-1.4-2.4-3.1-4.7-4.9-6.8c-2.3-2.4-5.3-5.1-7.5-7.1L353,243.2z M356.4,1126
	c-0.7,1.3-10.8,8.9-12.8,11.5c-1.4,1.8-2.9,3.4-4.6,4.9l27-11.8l3.9-3.9c0,0,10.8-9.9,13.5-12.8s10.2-16.1,10.2-16.1
	c-4.3,0.3-31.9,22.3-31.9,22.3S357.1,1124.7,356.4,1126L356.4,1126z M326.2,534.9l13.5,19.7l13.5-19.7H326.2z M362.7,360.7
	l-9.5-15.2l-9.5,15.2l9.5,15L362.7,360.7z M346.8,400l6.5,11l6.5-11v-14.3l15.2-25.2l-21.6-35.2l-21.7,35.2l15.2,25.2L346.8,400z
	 M353.2,340.3l12.7,20.3L353.2,381l-12.7-20.4L353.2,340.3z M326.4,549.1h-11.2c-1.1,0-2,0.9-2,2v1c0,1.1,0.9,2,2,2H334
	c2.2,0,1-1.9,1-1.9l-13.8-19.9h30.8v-20.2c0-1.1-0.9-2-2-2h-1c-1.1,0-2,0.9-2,2v15.1h-31.8c-1.7,0-2.5,2.1-1.6,3.4L326.4,549.1z
	 M354.5,532.3h30.8l-13.8,19.9c0,0-1.3,1.9,1,1.9h18.7c1.1,0,2-0.9,2-2v-1c0-1.1-0.9-2-2-2H380l12.9-18.5c0.9-1.3,0.2-3.4-1.6-3.4
	h-31.8v-15.2c0-1.1-0.9-2-2-2h-1c-1.1,0-2,0.9-2,2L354.5,532.3z M356.1,1144.7c-1.7,2-9.2,4.3-9.2,4.3s-0.7,4.6-1.3,5.6
	s-3.6,10.8-3.6,10.8s6.2-3.9,7.2-5.6s5.6-4.6,7.9-7.9s8.5-14.8,8.5-14.8S357.7,1142.8,356.1,1144.7L356.1,1144.7z M353.2,574.3
	l13.5-19.7h-27L353.2,574.3z M367.2,1380.6c-1.3,1-2.3,17.7-2.3,17.7l3.3-2.3c0,0,4.3-4.9,6.2-7.6c1-1.5,2.9-2.2,4.6-1.6
	c-1-3-3.6-13.1-3.6-13.1l-3.9,5.2C370,1379.3,368.6,1379.9,367.2,1380.6L367.2,1380.6z M353.2,534.9l13.5,19.7l13.5-19.7H353.2z"/>
</svg>